{
	"asset":{
		"version":"2.0",
		"generator":"Created using the official Cinema 4D glTF Exporter 1.000x284978"
	},
	"scenes":[{
		"nodes":[0,
		1,
		2,
		3,
		4]
	}],
	"nodes":[{
		"name":"RANDOM_BOX",
		"translation":[-444.9403991699219,
		6571.74365234375,
		21950.07421875],
		"rotation":[0.0,
		0.0,
		0.0,
		-1.0],
		"scale":[1.0,
		1.0,
		1.0],
		"mesh":0
	},
	{
		"name":"RANDOM_PLATE",
		"translation":[-4081.04052734375,
		5302.78564453125,
		5727.48779296875],
		"rotation":[0.0,
		0.0,
		0.0,
		-1.0],
		"scale":[1.0,
		1.0,
		1.0],
		"mesh":1
	},
	{
		"name":"CUBE",
		"translation":[0.0,
		17075.404296875,
		18261.671875],
		"rotation":[0.0,
		0.0,
		0.0,
		-1.0],
		"scale":[1.0,
		1.0,
		1.0],
		"mesh":2
	},
	{
		"name":"3D",
		"translation":[-373.74481201171877,
		4466.08447265625,
		16691.328125],
		"rotation":[0.0,
		0.0,
		0.0,
		-1.0],
		"scale":[1.0,
		1.0,
		1.0],
		"mesh":3
	},
	{
		"name":"CAM_FLAT",
		"translation":[18.66053009033203,
		4723.83935546875,
		-22619.513671875],
		"rotation":[0.0,
		-1.0,
		0.0,
		-6.123234262925839e-17],
		"scale":[1.0,
		1.0,
		1.0],
		"camera":0
	}],
	"meshes":[{
		"name":"RANDOM_BOX",
		"primitives":[{
			"attributes":{
				"POSITION":1,
				"NORMAL":2,
				"TEXCOORD_0":3
			},
			"indices":0,
			"material":0
		}]
	},
	{
		"name":"RANDOM_PLATE",
		"primitives":[{
			"attributes":{
				"POSITION":5,
				"NORMAL":6,
				"TEXCOORD_0":7
			},
			"indices":4,
			"material":1
		}]
	},
	{
		"name":"CUBE",
		"primitives":[{
			"attributes":{
				"POSITION":9,
				"NORMAL":10,
				"TEXCOORD_0":11
			},
			"indices":8,
			"material":2
		}]
	},
	{
		"name":"3D",
		"primitives":[{
			"attributes":{
				"POSITION":13,
				"NORMAL":14,
				"TEXCOORD_0":15
			},
			"indices":12,
			"material":3
		}]
	}],
	"cameras":[{
		"type":"perspective",
		"perspective":{
			"znear":0.009999999776482582,
			"zfar":10000000000.0,
			"aspectRatio":1.600000023841858,
			"yfov":0.4426288902759552
		}
	}],
	"accessors":[{
		"bufferView":0,
		"min":[0],
		"type":"SCALAR",
		"componentType":5123,
		"count":1698,
		"byteOffset":0,
		"max":[1131]
	},
	{
		"bufferView":1,
		"min":[-27992.8203125,
		-12999.66015625,
		-32165.517578125],
		"type":"VEC3",
		"componentType":5126,
		"count":1132,
		"byteOffset":0,
		"max":[28323.537109375,
		13321.37890625,
		32425.4765625]
	},
	{
		"bufferView":1,
		"min":[-1.0,
		-1.0,
		-1.0],
		"type":"VEC3",
		"componentType":5126,
		"count":1132,
		"byteOffset":12,
		"max":[1.0,
		1.0,
		1.0]
	},
	{
		"bufferView":1,
		"min":[0.007055978756397963,
		0.007063677534461021],
		"type":"VEC2",
		"componentType":5126,
		"count":1132,
		"byteOffset":24,
		"max":[0.9929440021514893,
		0.9929362535476685]
	},
	{
		"bufferView":2,
		"min":[0],
		"type":"SCALAR",
		"componentType":5123,
		"count":1188,
		"byteOffset":0,
		"max":[791]
	},
	{
		"bufferView":3,
		"min":[-23322.361328125,
		-6756.58349609375,
		-28038.322265625],
		"type":"VEC3",
		"componentType":5126,
		"count":792,
		"byteOffset":0,
		"max":[23571.03125,
		6725.93408203125,
		27620.373046875]
	},
	{
		"bufferView":3,
		"min":[-1.0,
		-1.0,
		-1.0],
		"type":"VEC3",
		"componentType":5126,
		"count":792,
		"byteOffset":12,
		"max":[1.0,
		1.0,
		1.0]
	},
	{
		"bufferView":3,
		"min":[0.0071254754438996319,
		0.007124246098101139],
		"type":"VEC2",
		"componentType":5126,
		"count":792,
		"byteOffset":24,
		"max":[0.9928745031356812,
		0.9928756952285767]
	},
	{
		"bufferView":4,
		"min":[0],
		"type":"SCALAR",
		"componentType":5123,
		"count":24,
		"byteOffset":0,
		"max":[15]
	},
	{
		"bufferView":5,
		"min":[-43068.84375,
		-18997.55859375,
		-49291.00390625],
		"type":"VEC3",
		"componentType":5126,
		"count":16,
		"byteOffset":0,
		"max":[43068.84375,
		18997.55859375,
		33301.66015625]
	},
	{
		"bufferView":5,
		"min":[-1.0,
		0.0,
		-1.0],
		"type":"VEC3",
		"componentType":5126,
		"count":16,
		"byteOffset":12,
		"max":[1.0,
		1.0,
		0.0]
	},
	{
		"bufferView":5,
		"min":[0.007577789947390556,
		0.007760969921946526],
		"type":"VEC2",
		"componentType":5126,
		"count":16,
		"byteOffset":24,
		"max":[0.9924222230911255,
		0.9922389984130859]
	},
	{
		"bufferView":6,
		"min":[0],
		"type":"SCALAR",
		"componentType":5123,
		"count":396,
		"byteOffset":0,
		"max":[263]
	},
	{
		"bufferView":7,
		"min":[-4809.599609375,
		-4851.15869140625,
		-14432.8564453125],
		"type":"VEC3",
		"componentType":5126,
		"count":264,
		"byteOffset":0,
		"max":[6395.271484375,
		5585.44921875,
		15477.30859375]
	},
	{
		"bufferView":7,
		"min":[-1.0,
		-1.0,
		-1.0],
		"type":"VEC3",
		"componentType":5126,
		"count":264,
		"byteOffset":12,
		"max":[1.0,
		1.0,
		1.0]
	},
	{
		"bufferView":7,
		"min":[0.00820095743983984,
		0.007980354130268097],
		"type":"VEC2",
		"componentType":5126,
		"count":264,
		"byteOffset":24,
		"max":[0.9917990565299988,
		0.9920196533203125]
	}],
	"bufferViews":[{
		"buffer":0,
		"byteOffset":0,
		"byteLength":3396,
		"target":34963
	},
	{
		"buffer":0,
		"byteOffset":3396,
		"byteStride":32,
		"byteLength":36224,
		"target":34962
	},
	{
		"buffer":1,
		"byteOffset":0,
		"byteLength":2376,
		"target":34963
	},
	{
		"buffer":1,
		"byteOffset":2376,
		"byteStride":32,
		"byteLength":25344,
		"target":34962
	},
	{
		"buffer":2,
		"byteOffset":0,
		"byteLength":48,
		"target":34963
	},
	{
		"buffer":2,
		"byteOffset":48,
		"byteStride":32,
		"byteLength":512,
		"target":34962
	},
	{
		"buffer":3,
		"byteOffset":0,
		"byteLength":792,
		"target":34963
	},
	{
		"buffer":3,
		"byteOffset":792,
		"byteStride":32,
		"byteLength":8448,
		"target":34962
	}],
	"samplers":[{
		"magFilter":9729,
		"minFilter":9729,
		"wrapS":10497,
		"wrapT":10497
	},
	{
		"magFilter":9729,
		"minFilter":9729,
		"wrapS":10497,
		"wrapT":10497
	},
	{
		"magFilter":9729,
		"minFilter":9729,
		"wrapS":10497,
		"wrapT":10497
	},
	{
		"magFilter":9729,
		"minFilter":9729,
		"wrapS":10497,
		"wrapT":10497
	}],
	"buffers":[{
		"uri":"data:application/octet-stream;base64,",
		"byteLength":39620
	},
	{
		"uri":"data:application/octet-stream;base64,",
		"byteLength":27720
	},
	{
		"uri":"data:application/octet-stream;base64,",
		"byteLength":560
	},
	{
		"uri":"data:application/octet-stream;base64,",
		"byteLength":9240
	}],
	"images":[{
		"uri":"data:image/jpeg;base64,"
	},
	{
		"uri":"data:image/jpeg;base64,"
	},
	{
		"uri":"data:image/jpeg;base64,"
	},
	{
		"uri":"data:image/jpeg;base64,"
	}],
	"textures":[{
		"sampler":0,
		"source":0
	},
	{
		"sampler":1,
		"source":1
	},
	{
		"sampler":2,
		"source":2
	},
	{
		"sampler":3,
		"source":3
	}],
	"materials":[{
		"pbrMetallicRoughness":{
			"baseColorTexture":{
				"index":0
			},
			"baseColorFactor":[0.8,
			0.8,
			0.8,
			1.0],
			"metallicFactor":1.0,
			"roughnessFactor":1.0
		},
		"emissiveFactor":[0.0,
		0.0,
		0.0],
		"alphaMode":"OPAQUE",
		"doubleSided":true,
		"name":"BOX"
	},
	{
		"pbrMetallicRoughness":{
			"baseColorTexture":{
				"index":1
			},
			"baseColorFactor":[0.8,
			0.8,
			0.8,
			1.0],
			"metallicFactor":1.0,
			"roughnessFactor":1.0
		},
		"emissiveFactor":[0.0,
		0.0,
		0.0],
		"alphaMode":"OPAQUE",
		"doubleSided":true,
		"name":"PLATE"
	},
	{
		"pbrMetallicRoughness":{
			"baseColorTexture":{
				"index":2
			},
			"baseColorFactor":[0.8,
			0.8,
			0.8,
			1.0],
			"metallicFactor":1.0,
			"roughnessFactor":1.0
		},
		"emissiveFactor":[0.0,
		0.0,
		0.0],
		"alphaMode":"OPAQUE",
		"doubleSided":true,
		"name":"CUBE"
	},
	{
		"pbrMetallicRoughness":{
			"baseColorTexture":{
				"index":3
			},
			"baseColorFactor":[0.8,
			0.8,
			0.8,
			1.0],
			"metallicFactor":1.0,
			"roughnessFactor":1.0
		},
		"emissiveFactor":[0.0,
		0.0,
		0.0],
		"alphaMode":"OPAQUE",
		"doubleSided":true,
		"name":"3D"
	}]
}