{
	"textures":[{
		"sampler":0,
		"source":0
	},
	{
		"sampler":1,
		"source":1
	},
	{
		"sampler":2,
		"source":2
	},
	{
		"sampler":3,
		"source":3
	}],
	"asset":{
		"version":"2.0",
		"generator":"Created using the official Cinema 4D glTF Exporter 1.000x284978"
	},
	"scenes":[{
		"nodes":[0,
		1,
		2,
		3,
		4]
	}],
	"nodes":[{
		"name":"3D",
		"translation":[105.16766357421875,
		44.66084289550781,
		166.91326904296876],
		"rotation":[0.0,
		0.0,
		0.0,
		-1.0],
		"scale":[1.0,
		1.0,
		1.0],
		"mesh":0
	},
	{
		"name":"CUBE",
		"translation":[0.0,
		170.75404357910157,
		182.61671447753907],
		"rotation":[0.0,
		0.0,
		0.0,
		-1.0],
		"scale":[1.0,
		1.0,
		1.0],
		"mesh":1
	},
	{
		"name":"RANDOM_PLATE",
		"translation":[-40.81040573120117,
		53.027854919433597,
		57.274879455566409],
		"rotation":[0.0,
		0.0,
		0.0,
		-1.0],
		"scale":[1.0,
		1.0,
		1.0],
		"mesh":2
	},
	{
		"name":"RANDOM_BOX",
		"translation":[-4.449403762817383,
		65.71743774414063,
		219.50074768066407],
		"rotation":[0.0,
		0.0,
		0.0,
		-1.0],
		"scale":[1.0,
		1.0,
		1.0],
		"mesh":3
	},
	{
		"name":"CAM_FLAT",
		"translation":[0.1866052895784378,
		47.2383918762207,
		-226.19512939453126],
		"rotation":[0.0,
		-1.0,
		0.0,
		-6.123234262925839e-17],
		"scale":[1.0,
		1.0,
		1.0],
		"camera":0
	}],
	"meshes":[{
		"name":"3D",
		"primitives":[{
			"attributes":{
				"POSITION":1,
				"NORMAL":2,
				"TEXCOORD_0":3
			},
			"indices":0,
			"material":0
		}]
	},
	{
		"name":"CUBE",
		"primitives":[{
			"attributes":{
				"POSITION":5,
				"NORMAL":6,
				"TEXCOORD_0":7
			},
			"indices":4,
			"material":1
		}]
	},
	{
		"name":"RANDOM_PLATE",
		"primitives":[{
			"attributes":{
				"POSITION":9,
				"NORMAL":10,
				"TEXCOORD_0":11
			},
			"indices":8,
			"material":2
		}]
	},
	{
		"name":"RANDOM_BOX",
		"primitives":[{
			"attributes":{
				"POSITION":13,
				"NORMAL":14,
				"TEXCOORD_0":15
			},
			"indices":12,
			"material":3
		}]
	}],
	"cameras":[{
		"type":"perspective",
		"perspective":{
			"zfar":10000000000.0,
			"znear":0.009999999776482582,
			"aspectRatio":1.600000023841858,
			"yfov":0.4426288902759552
		}
	}],
	"accessors":[{
		"bufferView":0,
		"type":"SCALAR",
		"count":402,
		"componentType":5123,
		"byteOffset":0,
		"min":[0],
		"max":[267]
	},
	{
		"bufferView":1,
		"type":"VEC3",
		"count":268,
		"componentType":5126,
		"byteOffset":0,
		"min":[-162.85433959960938,
		-48.5115852355957,
		-144.3285675048828],
		"max":[33.33607864379883,
		55.8544921875,
		154.77308654785157]
	},
	{
		"bufferView":1,
		"type":"VEC3",
		"count":268,
		"componentType":5126,
		"byteOffset":12,
		"min":[-1.0,
		-1.0,
		-1.0],
		"max":[1.0,
		1.0,
		1.0]
	},
	{
		"bufferView":1,
		"type":"VEC2",
		"count":268,
		"componentType":5126,
		"byteOffset":24,
		"min":[0.00820095743983984,
		0.007980354130268097],
		"max":[0.9917990565299988,
		0.9920196533203125]
	},
	{
		"bufferView":2,
		"type":"SCALAR",
		"count":24,
		"componentType":5123,
		"byteOffset":0,
		"min":[0],
		"max":[15]
	},
	{
		"bufferView":3,
		"type":"VEC3",
		"count":16,
		"componentType":5126,
		"byteOffset":0,
		"min":[-430.6884460449219,
		-189.97560119628907,
		-492.9100341796875],
		"max":[430.6884460449219,
		868.1849365234375,
		333.0166015625]
	},
	{
		"bufferView":3,
		"type":"VEC3",
		"count":16,
		"componentType":5126,
		"byteOffset":12,
		"min":[-1.0,
		0.0,
		-1.0],
		"max":[1.0,
		1.0,
		0.0]
	},
	{
		"bufferView":3,
		"type":"VEC2",
		"count":16,
		"componentType":5126,
		"byteOffset":24,
		"min":[0.0033343727700412275,
		0.0033956049010157587],
		"max":[0.9900990128517151,
		0.9900989532470703]
	},
	{
		"bufferView":4,
		"type":"SCALAR",
		"count":1188,
		"componentType":5123,
		"byteOffset":0,
		"min":[0],
		"max":[791]
	},
	{
		"bufferView":5,
		"type":"VEC3",
		"count":792,
		"componentType":5126,
		"byteOffset":0,
		"min":[-233.22361755371095,
		-67.56583404541016,
		-280.3832092285156],
		"max":[235.7103271484375,
		67.25933837890625,
		276.2037353515625]
	},
	{
		"bufferView":5,
		"type":"VEC3",
		"count":792,
		"componentType":5126,
		"byteOffset":12,
		"min":[-1.0,
		-1.0,
		-1.0],
		"max":[1.0,
		1.0,
		1.0]
	},
	{
		"bufferView":5,
		"type":"VEC2",
		"count":792,
		"componentType":5126,
		"byteOffset":24,
		"min":[0.0071254754438996319,
		0.007124246098101139],
		"max":[0.9928745031356812,
		0.9928756952285767]
	},
	{
		"bufferView":6,
		"type":"SCALAR",
		"count":1698,
		"componentType":5123,
		"byteOffset":0,
		"min":[0],
		"max":[1131]
	},
	{
		"bufferView":7,
		"type":"VEC3",
		"count":1132,
		"componentType":5126,
		"byteOffset":0,
		"min":[-279.9281921386719,
		-129.99659729003907,
		-321.6551818847656],
		"max":[283.2353820800781,
		133.2137908935547,
		324.2547607421875]
	},
	{
		"bufferView":7,
		"type":"VEC3",
		"count":1132,
		"componentType":5126,
		"byteOffset":12,
		"min":[-1.0,
		-1.0,
		-1.0],
		"max":[1.0,
		1.0,
		1.0]
	},
	{
		"bufferView":7,
		"type":"VEC2",
		"count":1132,
		"componentType":5126,
		"byteOffset":24,
		"min":[0.007055978756397963,
		0.007063677534461021],
		"max":[0.9929440021514893,
		0.9929362535476685]
	}],
	"materials":[{
		"pbrMetallicRoughness":{
			"baseColorTexture":{
				"index":0
			},
			"baseColorFactor":[0.8,
			0.8,
			0.8,
			1.0],
			"metallicFactor":1.0,
			"roughnessFactor":1.0
		},
		"emissiveFactor":[0.0,
		0.0,
		0.0],
		"name":"3D",
		"alphaMode":"OPAQUE",
		"doubleSided":true
	},
	{
		"pbrMetallicRoughness":{
			"baseColorTexture":{
				"index":1
			},
			"baseColorFactor":[0.8,
			0.8,
			0.8,
			1.0],
			"metallicFactor":1.0,
			"roughnessFactor":1.0
		},
		"emissiveFactor":[0.0,
		0.0,
		0.0],
		"name":"CUBE",
		"alphaMode":"OPAQUE",
		"doubleSided":true
	},
	{
		"pbrMetallicRoughness":{
			"baseColorTexture":{
				"index":2
			},
			"baseColorFactor":[0.8,
			0.8,
			0.8,
			1.0],
			"metallicFactor":1.0,
			"roughnessFactor":1.0
		},
		"emissiveFactor":[0.0,
		0.0,
		0.0],
		"name":"PLATE",
		"alphaMode":"OPAQUE",
		"doubleSided":true
	},
	{
		"pbrMetallicRoughness":{
			"baseColorTexture":{
				"index":3
			},
			"baseColorFactor":[0.8,
			0.8,
			0.8,
			1.0],
			"metallicFactor":1.0,
			"roughnessFactor":1.0
		},
		"emissiveFactor":[0.0,
		0.0,
		0.0],
		"name":"BOX",
		"alphaMode":"OPAQUE",
		"doubleSided":true
	}],
	"bufferViews":[{
		"buffer":0,
		"byteOffset":0,
		"byteLength":804,
		"target":34963
	},
	{
		"buffer":0,
		"byteOffset":804,
		"byteLength":8576,
		"target":34962,
		"byteStride":32
	},
	{
		"buffer":1,
		"byteOffset":0,
		"byteLength":48,
		"target":34963
	},
	{
		"buffer":1,
		"byteOffset":48,
		"byteLength":512,
		"target":34962,
		"byteStride":32
	},
	{
		"buffer":2,
		"byteOffset":0,
		"byteLength":2376,
		"target":34963
	},
	{
		"buffer":2,
		"byteOffset":2376,
		"byteLength":25344,
		"target":34962,
		"byteStride":32
	},
	{
		"buffer":3,
		"byteOffset":0,
		"byteLength":3396,
		"target":34963
	},
	{
		"buffer":3,
		"byteOffset":3396,
		"byteLength":36224,
		"target":34962,
		"byteStride":32
	}],
	"buffers":[{
		"uri":"data:application/octet-stream;base64,",
		"byteLength":9380
	},
	{
		"uri":"data:application/octet-stream;base64,",
		"byteLength":560
	},
	{
		"uri":"data:application/octet-stream;base64,",
		"byteLength":27720
	},
	{
		"uri":"data:application/octet-stream;base64,",
		"byteLength":39620
	}],
	"images":[{
		"uri":"data:image/jpeg;base64,"
	},
	{
		"uri":"data:image/jpeg;base64,"
	},
	{
		"uri":"data:image/jpeg;base64,"
	},
	{
		"uri":"data:image/jpeg;base64,"
	}],
	"samplers":[{
		"magFilter":9729,
		"minFilter":9729,
		"wrapS":10497,
		"wrapT":10497
	},
	{
		"magFilter":9729,
		"minFilter":9729,
		"wrapS":10497,
		"wrapT":10497
	},
	{
		"magFilter":9729,
		"minFilter":9729,
		"wrapS":10497,
		"wrapT":10497
	},
	{
		"magFilter":9729,
		"minFilter":9729,
		"wrapS":10497,
		"wrapT":10497
	}]
}